<?xml version="1.0" standalone="no"?><!DOCTYPE svg PUBLIC "-//W3C//DTD SVG 1.1//EN" "http://www.w3.org/Graphics/SVG/1.1/DTD/svg11.dtd"><svg width="766.015625" height="200" viewBox="0 0 766.015625 200" version="1.1" xmlns="http://www.w3.org/2000/svg" xmlns:xlink="http://www.w3.org/1999/xlink"><defs><style type="text/css"><![CDATA[
@font-face { font-family: ifont; src: url("//at.alicdn.com/t/font_1442373896_4754455.eot?#iefix") format("embedded-opentype"), url("//at.alicdn.com/t/font_1442373896_4754455.woff") format("woff"), url("//at.alicdn.com/t/font_1442373896_4754455.ttf") format("truetype"), url("//at.alicdn.com/t/font_1442373896_4754455.svg#ifont") format("svg"); }

]]></style></defs><g class="transform-group"><g transform="scale(0.1953125, 0.1953125)"><path d="M3828.211824 40.75715c0 68.841964 2.993129 122.718284 2.993129 190.063683-131.69767-64.352271-435.50025-82.311044-407.065526 49.386626 32.924418 146.663315 490.873135 107.752639 496.859392 420.534606 5.986258 326.251047-369.651415 383.120495-740.799395 246.933132 0-61.359142 2.993129-115.235461 2.993129-175.098039 122.718284 40.40724 504.342214 130.201106 507.335343-43.400369 2.993129-137.683928-369.651415-172.10491-454.955588-299.312887C3027.549851 123.068194 3451.077586-93.933649 3828.211824 40.75715zM381.623931 24.294941l234.960616 0 335.230433 957.801238L745.289088 982.096179c0 0-41.903804-26.93816-50.883191-56.869449L484.886877 334.083779l-146.663315 416.044913L522.300988 748.632127l38.910675 112.242333L0 1022.503419 330.74074 91.640341C330.74074 91.640341 341.216691 40.75715 381.623931 24.294941zM1047.595104 24.294941l176.594603 0 0 658.488351c0 0 31.427853 94.283559 107.752639 107.752639 0 0 71.835093 25.441595 130.201106-28.434724 0 0 50.883191-47.890062 53.87632-80.814479L1516.019772 58.715923c0 0 5.986258-29.931289 41.903804-34.420982l167.615217 0 0 680.936818c0 0-40.40724 240.946874-237.953745 294.823194 0 0-178.091168 38.910675-285.843807-25.441595 0 0-190.063683-89.793866-191.560248-303.80258L1010.180993 70.688439C1010.180993 70.688439 1014.670687 42.253714 1047.595104 24.294941zM2164.032173 24.294941l234.960616 0 335.230433 957.801238-206.525892 0c0 0-41.903804-26.93816-50.883191-56.869449l-208.022456-591.142952-146.663315 416.044913L2304.709229 748.632127l38.910675 112.242333-561.211663 163.125523 330.74074-932.359643C2113.148982 91.640341 2123.624933 40.75715 2164.032173 24.294941zM2849.458684 24.294941l219.994972 0 0 960.794367-184.077425 0c0 0-32.924418-20.951902-35.917546-44.896933L2849.458684 24.294941z" fill="#ffffff"></path></g></g></svg>